<svg width="17" height="24" viewBox="0 0 17 24" fill="none" xmlns="http://www.w3.org/2000/svg">
<path d="M8.34229 0C3.74238 0 0 3.74238 0 8.34229C0 14.1239 8.35049 24 8.35049 24C8.35049 24 16.6846 13.8396 16.6846 8.34229C16.6846 3.74238 12.9423 0 8.34229 0ZM10.8593 10.7849C10.1653 11.4788 9.25386 11.8258 8.34229 11.8258C7.43086 11.8258 6.51914 11.4788 5.82539 10.7849C4.43745 9.39712 4.43745 7.13892 5.82539 5.75098C6.49746 5.07861 7.39146 4.7083 8.34229 4.7083C9.29312 4.7083 10.187 5.07876 10.8593 5.75098C12.2473 7.13892 12.2473 9.39712 10.8593 10.7849Z" fill="#2B2B2B"/>
</svg>
