<svg width="160" height="33" viewBox="0 0 160 33" fill="none" xmlns="http://www.w3.org/2000/svg">
<path d="M11.3421 15.8253C11.3421 11.1227 11.3421 6.37922 11.3421 1.67662C11.3421 1.18591 11.1806 1.06323 10.7366 1.06323C9.16246 1.10412 7.58829 1.06323 5.97376 1.06323C5.12614 1.06323 4.64178 1.47215 4.43996 2.29C3.91524 4.49818 3.35015 6.70636 2.78507 8.87364C2.70434 9.15989 2.58325 9.32346 2.26034 9.28256C1.69526 9.24167 1.08981 9.24167 0.524723 9.28256C0.12109 9.32346 0 9.11899 0 8.75097C0.0403633 7.64688 0.0807265 6.58368 0.0807265 5.47959C0.0807265 4.66175 0.0807265 3.88479 0.0807265 3.06695C0.0807265 2.16732 0.161453 1.26769 0.161453 0.327173C0.161453 0.0818198 0.24218 -0.081749 0.524723 -0.0408568C0.605449 -0.0408568 0.726539 -0.0408568 0.807265 -0.0408568C9.5661 3.5435e-05 18.3249 3.5435e-05 27.0434 3.5435e-05C27.6892 3.5435e-05 27.6892 3.54424e-05 27.6892 0.695203C27.7296 3.14873 27.7699 5.56137 27.7699 8.0149C27.7699 8.30115 27.8507 8.5465 27.8507 8.83275C27.891 9.15989 27.7296 9.32345 27.4067 9.32345C26.7608 9.32345 26.1554 9.36435 25.5096 9.32345C25.3481 9.32345 25.106 9.11899 25.0656 8.95543C24.5005 6.78814 23.9354 4.57996 23.4107 2.41267C23.1685 1.43126 22.7649 1.10412 21.7558 1.10412C20.1816 1.10412 18.6075 1.10412 17.0737 1.10412C16.6297 1.10412 16.4682 1.26769 16.4682 1.71751C16.4682 11.1227 16.4682 20.487 16.4682 29.8922C16.4682 30.7919 17.0333 31.3643 17.9213 31.3643C18.8093 31.3643 19.6569 31.3643 20.5449 31.3643C20.9485 31.3643 21.0293 31.5279 21.0293 31.8959C21.0293 32.2231 21.0293 32.4684 20.5853 32.4684C16.1453 32.4684 11.7457 32.4684 7.30575 32.4684C6.86176 32.4684 6.86176 32.2231 6.86176 31.8959C6.86176 31.5279 6.90212 31.3643 7.34612 31.3643C8.19374 31.4052 9.04137 31.3643 9.92937 31.3643C10.8577 31.3643 11.3421 30.8736 11.3421 29.9331C11.3421 25.2305 11.3421 20.5279 11.3421 15.8253Z" fill="#2B2B2B"/>
<path d="M59.1322 27.0298C60.1413 25.6394 61.0293 24.3309 61.9576 23.0632C63.5721 20.7733 65.1867 18.5242 66.8012 16.2342C67.8506 14.7212 68.9001 13.2491 69.9899 11.7361C71.1604 10.1004 72.6539 9.07811 74.7528 9.11901C75.6407 9.1599 76.5287 9.1599 77.4167 9.11901C77.8607 9.11901 77.8607 9.36436 77.8607 9.6915C77.8607 10.0186 77.9011 10.3049 77.4167 10.3049C76.7306 10.3049 76.0444 10.3049 75.3986 10.3049C74.5913 10.3049 74.1069 10.8365 74.1069 11.6543C74.1069 17.7473 74.1069 23.8811 74.1069 29.974C74.1069 30.8736 74.5509 31.2826 75.4389 31.2826C76.004 31.2826 76.6095 31.2826 77.1746 31.2826C77.6589 31.2826 77.5782 31.6915 77.5782 32.0186C77.5782 32.3049 77.5378 32.4684 77.1746 32.4684C73.4611 32.4684 69.7477 32.4684 66.0343 32.4684C65.9939 32.4684 65.9536 32.4684 65.9132 32.4276C65.9132 32.3867 65.8728 32.3458 65.8728 32.3458C65.8325 31.0372 65.7921 31.3235 66.8819 31.2826C67.2048 31.2826 67.4874 31.2417 67.8103 31.2826C68.9404 31.4052 69.3441 30.6283 69.3441 29.6878C69.3441 27.8476 69.3441 26.0484 69.3441 24.2082C69.3441 21.3049 69.3441 18.4424 69.3441 15.5391C69.3441 15.3346 69.3037 15.171 69.3037 14.9666C69.2634 14.9666 69.223 14.9257 69.1826 14.9257C68.9808 15.2119 68.7386 15.4982 68.5368 15.7844C66.7205 18.3197 64.9445 20.8551 63.1281 23.3904C61.6347 25.5168 60.1816 27.725 58.5671 29.7696C57.4773 31.2008 55.9838 32.1413 54.1675 32.3049C53.118 32.3867 52.0686 32.3867 51.0595 32.3867C50.9384 32.3867 50.7366 32.2231 50.7366 32.1004C50.6155 31.3235 50.6963 31.2417 51.4632 31.2417C51.9879 31.2417 52.5126 31.2417 52.997 31.2417C53.7639 31.2417 54.2886 30.7101 54.2886 29.9331C54.2886 28.7064 54.2886 27.5205 54.2886 26.2937C54.2886 21.4276 54.2886 16.5205 54.2886 11.6543C54.2886 10.7547 53.8042 10.264 52.9162 10.264C52.3108 10.264 51.7053 10.264 51.1403 10.264C50.6559 10.264 50.7366 9.97774 50.7366 9.6915C50.7366 9.40525 50.6559 9.07811 51.1403 9.07811C54.7729 9.07811 58.4056 9.07811 62.0383 9.07811C62.5631 9.07811 62.442 9.40525 62.4823 9.6915C62.4823 10.0186 62.5227 10.264 62.0383 10.264C61.4732 10.2231 60.9485 10.264 60.3834 10.264C59.6165 10.264 59.0918 10.7547 59.0918 11.5316C59.0918 16.5205 59.0918 21.5093 59.0918 26.4982C59.0514 26.6618 59.0918 26.7844 59.1322 27.0298Z" fill="#2B2B2B"/>
<path d="M135.459 26.907C136.71 25.1487 137.962 23.3903 139.213 21.591C140.827 19.3011 142.442 17.0111 144.097 14.7211C144.864 13.6579 145.59 12.5539 146.398 11.4907C147.528 10.0185 148.94 9.07802 150.878 9.11892C151.806 9.11892 152.735 9.15981 153.623 9.11892C154.147 9.11892 154.026 9.44605 154.067 9.7323C154.067 10.0594 154.107 10.3048 153.623 10.3048C152.936 10.2639 152.25 10.3048 151.604 10.3048C150.797 10.3048 150.272 10.8364 150.272 11.6133C150.272 17.7063 150.272 23.8401 150.272 29.933C150.272 30.7509 150.757 31.2416 151.564 31.2416C152.129 31.2416 152.735 31.2825 153.3 31.2416C153.744 31.2007 153.744 31.4869 153.744 31.8141C153.744 32.1003 153.865 32.4684 153.34 32.4275C149.707 32.4275 146.075 32.4275 142.442 32.4275C141.917 32.4275 142.038 32.1003 142.038 31.8141C142.038 31.4869 142.038 31.2416 142.482 31.2416C143.047 31.2825 143.653 31.2416 144.218 31.2416C144.985 31.2416 145.51 30.7509 145.51 30.0148C145.51 25.026 145.51 20.0371 145.51 15.0483C145.51 15.0074 145.51 15.0074 145.429 14.8438C145.187 15.1301 144.985 15.4163 144.783 15.6617C143.451 17.5427 142.159 19.3829 140.827 21.2639C139.051 23.7583 137.235 26.2527 135.499 28.7881C134.813 29.7695 134.087 30.6691 133.078 31.3234C132.028 32.0185 130.817 32.4275 129.526 32.4275C128.799 32.4275 128.113 32.3866 127.386 32.4275C126.862 32.4684 126.862 32.1821 126.862 31.8141C126.862 31.4052 126.983 31.2416 127.386 31.2416C127.992 31.2825 128.597 31.2416 129.243 31.2416C129.97 31.2416 130.454 30.7509 130.454 30.0148C130.454 23.881 130.454 17.7063 130.454 11.5724C130.454 10.7955 129.97 10.3048 129.203 10.3048C128.638 10.3048 128.032 10.2639 127.467 10.3048C126.983 10.3457 126.862 10.1412 126.862 9.69141C126.862 9.24159 126.983 9.11892 127.427 9.11892C129.526 9.15981 131.625 9.11892 133.723 9.11892C135.177 9.11892 136.63 9.11892 138.083 9.11892C138.567 9.11892 138.607 9.32338 138.607 9.69141C138.607 10.0594 138.607 10.3457 138.123 10.3048C137.679 10.2639 137.235 10.3457 136.831 10.3048C135.701 10.1821 135.257 11.0408 135.257 11.9405C135.257 15.7026 135.257 19.4646 135.257 23.2676C135.257 24.3308 135.257 25.394 135.257 26.4572C135.257 26.6208 135.298 26.7843 135.298 26.9479C135.338 26.907 135.378 26.907 135.459 26.907Z" fill="#2B2B2B"/>
<path d="M32.331 19.9962C32.331 21.2638 32.5732 22.4497 32.8557 23.6356C33.2997 25.4757 34.0666 27.2341 35.2775 28.7062C36.448 30.1374 37.9415 31.1597 39.8789 31.4051C42.0182 31.6913 43.7538 30.9144 45.2472 29.5241C45.9334 28.9107 46.4581 28.1337 47.0636 27.4386C47.3057 27.1114 47.5479 27.1523 47.8305 27.3568C48.113 27.5612 48.3552 27.7657 48.113 28.1337C47.1039 29.5241 45.893 30.7099 44.3996 31.5687C43.3098 32.182 42.1796 32.6728 40.9283 32.9181C39.7174 33.1226 38.5065 33.1226 37.2553 32.9999C35.9233 32.8772 34.672 32.4274 33.4611 31.814C31.5641 30.7917 30.0706 29.3605 28.9405 27.5203C28.0928 26.13 27.5277 24.617 27.2856 22.9404C26.8416 20.2415 27.2048 17.6244 28.4157 15.2118C30.0706 11.8177 32.8153 9.60956 36.4884 8.8326C39.4349 8.21922 42.3007 8.62814 44.8032 10.5092C46.3774 11.6951 47.3865 13.2899 47.9112 15.1709C48.1937 16.1523 48.2745 17.1746 48.4359 18.1969C48.5166 18.6058 48.5166 19.0148 48.557 19.4646C48.5974 19.9553 48.3955 20.078 47.9515 20.078C42.9869 20.078 38.0222 20.078 33.0575 20.078C32.775 19.9962 32.6135 19.9962 32.331 19.9962ZM32.331 18.8103C32.5731 18.8103 32.775 18.8103 32.9364 18.8103C36.2058 18.8103 39.4349 18.8103 42.7043 18.8103C42.8254 18.8103 42.9465 18.8512 43.0272 18.8103C43.1483 18.7285 43.3501 18.6058 43.3501 18.4832C43.4309 16.4386 43.2694 14.4348 42.22 12.5947C40.6862 9.97758 37.2957 9.44599 35.0353 11.6133C33.9859 12.5947 33.34 13.8215 32.9364 15.2118C32.5731 16.3568 32.331 17.5426 32.331 18.8103Z" fill="#2B2B2B"/>
<path d="M113.138 9.11885C116.69 9.11885 120.242 9.11885 123.794 9.11885C124.884 9.11885 124.884 9.11886 124.884 10.2638C124.884 11.2453 124.884 12.2267 124.884 13.2081C124.884 14.4757 124.924 15.7025 124.965 16.9702C124.965 17.3382 124.844 17.5018 124.48 17.4609C123.915 17.42 123.35 17.4609 122.785 17.4609C122.503 17.4609 122.341 17.3791 122.26 17.0519C121.776 15.2527 121.211 13.4534 120.727 11.6542C120.444 10.5501 120.04 10.1821 118.91 10.1821C117.942 10.1821 116.932 10.1821 115.964 10.1821C115.641 10.1821 115.52 10.2638 115.52 10.6319C115.52 17.1337 115.52 23.6356 115.52 30.1374C115.52 30.8326 116.085 31.3233 116.892 31.3642C117.498 31.3642 118.103 31.4051 118.668 31.3642C119.152 31.3233 119.072 31.6505 119.072 31.9367C119.072 32.2638 119.031 32.4683 118.628 32.4683C114.955 32.4683 111.282 32.4683 107.609 32.4683C107.165 32.4683 107.165 32.223 107.165 31.8958C107.165 31.5278 107.205 31.3233 107.649 31.3642C108.174 31.4051 108.698 31.3642 109.183 31.3642C110.273 31.4051 110.838 30.8326 110.838 29.6876C110.838 26.7434 110.838 23.7992 110.838 20.8549C110.838 17.5427 110.838 14.1895 110.838 10.8772C110.838 10.2638 110.797 10.1821 110.192 10.1821C109.223 10.1821 108.295 10.2229 107.326 10.1821C106.438 10.1412 105.792 10.5501 105.51 11.6542C105.066 13.4534 104.501 15.2118 104.016 17.011C103.935 17.3382 103.774 17.4609 103.451 17.4609C102.886 17.4609 102.321 17.4609 101.756 17.4609C101.433 17.4609 101.272 17.3791 101.312 17.011C101.352 14.8438 101.393 12.6356 101.433 10.4683C101.433 10.3047 101.514 10.1412 101.514 9.97759C101.594 9.11886 101.594 9.11885 102.482 9.11885C106.034 9.11885 109.586 9.11885 113.138 9.11885Z" fill="#2B2B2B"/>
<path d="M79.112 21.2639C78.991 19.0557 79.4753 17.052 80.444 15.1301C81.4935 13.0855 82.9869 11.4907 84.9647 10.3457C86.5792 9.40516 88.2745 8.91445 90.1312 8.70999C91.9879 8.50553 93.7639 8.6691 95.4592 9.40516C97.2755 10.223 98.6882 11.4907 98.9304 13.6579C99.0515 14.8438 98.7689 15.9479 98.002 16.8884C97.437 17.5836 96.7912 18.0334 95.9032 18.2379C94.9748 18.4423 93.4006 17.829 93.0374 16.7658C92.997 16.6431 93.0777 16.3977 93.1585 16.275C93.5621 15.7434 94.0868 15.2527 94.4097 14.6803C95.0152 13.5762 94.8133 11.1635 93.2795 10.3457C92.8355 10.1003 92.3108 9.93675 91.8265 9.85497C90.8577 9.65051 89.9294 9.81408 89.0414 10.223C88.1938 10.591 87.5076 11.1635 86.9425 11.8587C86.1352 12.881 85.4491 13.9851 85.0858 15.2527C84.8033 16.1933 84.5611 17.1338 84.3996 18.0743C84.2785 18.933 84.1978 19.7918 84.1978 20.6914C84.2382 22.8587 84.6418 24.9033 85.5298 26.907C86.0545 28.0111 86.7003 29.0334 87.5883 29.8922C89.1625 31.4461 91.4228 31.8141 93.4006 30.8736C95.0959 30.0557 96.3068 28.7472 97.2755 27.1933C97.4773 26.8252 97.6791 26.7435 98.002 26.9888C98.1231 27.0706 98.325 27.1115 98.4057 27.2342C98.4864 27.3977 98.6075 27.6431 98.5671 27.7658C97.3159 29.8922 95.7417 31.6096 93.3603 32.4275C91.8668 32.9591 90.2927 33.0817 88.6781 32.8773C87.4672 32.7546 86.2563 32.4684 85.1665 31.9368C82.3815 30.5464 80.6055 28.2974 79.6368 25.3122C79.2331 24.0037 78.991 22.6133 79.112 21.2639Z" fill="#2B2B2B"/>
<path d="M59.0111 0.0818302C59.5761 0.0818302 60.1412 0.0818302 60.7063 0.0818302C61.0292 0.0818302 61.1503 0.204507 61.2714 0.490752C61.8365 2.04466 62.9263 3.06696 64.5408 3.3941C65.9535 3.68035 67.4066 3.02607 68.335 1.75841C68.6175 1.34949 68.8193 0.858782 69.1019 0.44986C69.1826 0.286291 69.3844 0.122722 69.5459 0.122722C70.7568 0.0818302 71.9273 0.0818302 73.1382 0.122722C73.5015 0.122722 73.5822 0.286291 73.34 0.613429C72.452 1.92198 71.2008 2.82161 69.7477 3.43499C68.4964 3.96659 67.2048 4.25284 65.8325 4.33462C63.1281 4.49819 60.666 3.80302 58.4863 2.20823C57.9213 1.75841 57.4773 1.14503 56.9525 0.613429C56.8718 0.531645 56.7911 0.327184 56.8314 0.286291C56.9122 0.204507 57.0736 0.122722 57.1947 0.122722C57.8405 0.0818302 58.446 0.0818302 59.0111 0.0818302Z" fill="#2B2B2B"/>
<path d="M157.578 9.24165C157.982 9.24165 158.385 9.36432 158.749 9.56878C159.152 9.77324 159.435 10.0595 159.637 10.4684C159.838 10.8773 159.96 11.2454 159.96 11.6952C159.96 12.1041 159.838 12.513 159.637 12.9219C159.435 13.29 159.112 13.6171 158.749 13.8216C158.385 14.026 157.982 14.1487 157.538 14.1487C157.094 14.1487 156.73 14.026 156.327 13.8216C155.964 13.6171 155.641 13.29 155.439 12.9219C155.237 12.5539 155.116 12.145 155.116 11.6952C155.116 11.2863 155.237 10.8773 155.439 10.4684C155.641 10.0595 155.964 9.77324 156.327 9.56878C156.811 9.32343 157.174 9.24165 157.578 9.24165ZM157.578 9.52789C157.215 9.52789 156.892 9.60968 156.529 9.81414C156.206 9.97771 155.923 10.264 155.762 10.5911C155.56 10.9182 155.479 11.2863 155.479 11.6543C155.479 12.0223 155.56 12.3903 155.762 12.7175C155.964 13.0446 156.206 13.3309 156.529 13.4944C156.852 13.6989 157.215 13.7807 157.578 13.7807C157.941 13.7807 158.305 13.6989 158.628 13.4944C158.95 13.29 159.233 13.0446 159.394 12.7175C159.596 12.3903 159.677 12.0223 159.677 11.6543C159.677 11.2863 159.596 10.9182 159.394 10.5911C159.193 10.264 158.95 9.97771 158.628 9.81414C158.305 9.60968 157.941 9.52789 157.578 9.52789ZM157.538 10.264C157.941 10.264 158.224 10.3048 158.385 10.4275C158.628 10.5911 158.708 10.7547 158.708 11.0409C158.708 11.2045 158.668 11.368 158.547 11.4907C158.426 11.6134 158.305 11.6952 158.103 11.777L158.547 12.6357C158.628 12.7584 158.668 12.8402 158.749 12.9219C158.789 12.9628 158.829 12.9628 158.91 13.0037V13.1264H158.103L157.417 11.8587H157.255V12.5539C157.255 12.7584 157.296 12.8811 157.336 12.9219C157.376 12.9628 157.497 13.0037 157.659 13.0037V13.1264H156.206V13.0037C156.327 13.0037 156.448 12.9628 156.488 12.9219C156.529 12.8402 156.569 12.7175 156.569 12.513V10.8773C156.569 10.6729 156.569 10.5502 156.529 10.5093C156.488 10.4684 156.408 10.4275 156.286 10.4275V10.264H157.538ZM157.296 11.5725C157.376 11.5725 157.417 11.5725 157.497 11.5725C157.659 11.5725 157.78 11.5316 157.861 11.4089C157.941 11.2863 158.022 11.1636 158.022 10.9591C158.022 10.7547 157.982 10.632 157.861 10.5093C157.74 10.3866 157.618 10.3457 157.417 10.3457H157.296V11.5725Z" fill="#2B2B2B"/>
</svg>
